<svg xmlns="http://www.w3.org/2000/svg" version="1.0" preserveAspectRatio="xMidYMid meet" viewBox="3.99 8.11 284.65 87.83">
<metadata>
Created by potrace 1.10, written by Peter Selinger 2001-2011
</metadata>
<g transform="translate(0.000000,103.000000) scale(0.050000,-0.050000)" fill="#000000" stroke="none">
<path d="M651 1867 c-318 -98 -635 -533 -560 -769 35 -111 119 -53 146 101 53 301 250 499 547 549 155 26 204 64 157 120 -33 40 -157 40 -290 -1z"/>
<path d="M1052 1870 c-39 -40 -40 -52 -6 -98 52 -72 169 8 122 83 -30 48 -77 54 -116 15z"/>
<path d="M546 1547 c-18 -46 21 -97 74 -97 61 0 96 56 61 98 -34 42 -119 41 -135 -1z"/>
<path d="M923 1482 c-56 -35 -16 -91 84 -116 164 -41 273 -147 273 -269 0 -60 46 -107 90 -90 40 16 39 138 -3 226 -76 160 -345 312 -444 249z"/>
<path d="M1424 1476 c-35 -35 -30 -72 18 -139 144 -201 122 -480 -52 -673 -95 -105 -101 -151 -24 -176 96 -31 284 269 307 490 25 243 -151 596 -249 498z"/>
<path d="M428 1405 c-137 -137 -162 -466 -52 -690 97 -197 252 -319 320 -251 36 36 33 43 -83 161 -177 179 -225 440 -115 626 50 85 54 160 10 177 -42 16 -40 17 -80 -23z"/>
<path d="M889 1131 c-119 -119 40 -327 173 -225 89 68 87 178 -5 242 -64 45 -111 40 -168 -17z"/>
<path d="M2200 951 c0 -126 7 -233 16 -238 35 -22 59 21 57 97 l-3 80 84 6 c245 18 205 284 -43 284 l-111 0 0 -229z m229 138 c64 -65 18 -131 -93 -136 -64 -3 -66 0 -72 82 -7 94 92 126 165 54z"/>
<path d="M2684 950 c6 -231 40 -327 52 -145 9 134 77 136 146 5 47 -88 87 -123 107 -92 5 9 -15 55 -45 102 l-54 87 55 55 c108 108 31 218 -155 218 l-111 0 5 -230z m237 128 c31 -59 -26 -118 -114 -118 -65 0 -67 3 -67 80 0 96 135 125 181 38z"/>
<path d="M3164 950 c8 -309 44 -312 52 -5 4 202 1 235 -26 235 -27 0 -30 -32 -26 -230z"/>
<path d="M3482 1129 c-198 -167 -5 -508 219 -388 50 27 54 90 4 68 -145 -63 -235 -7 -235 145 0 130 129 219 206 142 17 -17 30 -18 46 -2 76 76 -152 109 -240 35z"/>
<path d="M3920 950 l0 -230 140 0 c111 0 140 6 140 30 0 23 -26 30 -110 30 l-110 0 0 69 c0 66 3 69 83 75 120 9 127 56 9 56 -92 0 -92 0 -92 70 l0 70 100 0 c76 0 100 7 100 30 0 24 -28 30 -130 30 l-130 0 0 -230z"/>
<path d="M4623 1148 c-83 -58 -53 -147 73 -215 84 -45 105 -66 100 -100 -7 -48 -124 -73 -163 -34 -30 30 -73 26 -73 -7 0 -84 224 -92 285 -9 59 79 31 132 -98 189 -91 40 -109 56 -103 93 7 52 100 73 146 35 28 -23 70 -12 70 18 0 55 -170 77 -237 30z"/>
<path d="M5044 952 c6 -233 40 -330 52 -147 l6 95 75 0 c241 0 227 258 -15 276 l-123 9 5 -233z m212 144 c64 -64 29 -126 -81 -146 l-75 -14 0 92 c0 97 88 136 156 68z"/>
<path d="M5504 1055 c39 -75 69 -168 75 -233 14 -139 61 -164 61 -33 0 66 20 132 71 234 39 77 67 146 61 152 -26 25 -65 -18 -101 -113 -50 -128 -56 -127 -111 8 -32 79 -55 110 -83 110 -34 0 -32 -12 27 -125z"/>
<path d="M585 1047 c-84 -34 38 -305 180 -400 116 -78 246 -105 290 -61 37 38 20 94 -29 94 -158 1 -287 105 -335 270 -30 104 -48 120 -106 97z"/>
<path d="M1766 956 c-11 -14 -27 -66 -34 -115 -45 -294 -295 -529 -591 -556 -139 -12 -176 -40 -140 -106 22 -41 33 -43 156 -32 370 34 706 365 711 700 2 128 -46 179 -102 109z"/>
<path d="M1151 489 c-35 -35 -37 -49 -16 -81 39 -58 145 -37 145 29 0 76 -74 106 -129 52z"/>
<path d="M801 291 c-49 -59 16 -152 86 -125 43 17 44 125 1 142 -46 18 -61 15 -87 -17z"/>
</g>
</svg>